<?xml version="1.0" encoding="UTF-8"?>
<svg xmlns="http://www.w3.org/2000/svg" xmlns:xlink="http://www.w3.org/1999/xlink" version="1.1" width="300px" height="300px" viewBox="0 0 300 300"><defs><rect id="r0" width="9" height="9" fill="#000000"/></defs><rect x="0" y="0" width="300" height="300" fill="#fefefe"/><use x="37" y="37" xlink:href="#r0"/><use x="46" y="37" xlink:href="#r0"/><use x="55" y="37" xlink:href="#r0"/><use x="64" y="37" xlink:href="#r0"/><use x="73" y="37" xlink:href="#r0"/><use x="82" y="37" xlink:href="#r0"/><use x="91" y="37" xlink:href="#r0"/><use x="109" y="37" xlink:href="#r0"/><use x="118" y="37" xlink:href="#r0"/><use x="127" y="37" xlink:href="#r0"/><use x="136" y="37" xlink:href="#r0"/><use x="154" y="37" xlink:href="#r0"/><use x="163" y="37" xlink:href="#r0"/><use x="199" y="37" xlink:href="#r0"/><use x="208" y="37" xlink:href="#r0"/><use x="217" y="37" xlink:href="#r0"/><use x="226" y="37" xlink:href="#r0"/><use x="235" y="37" xlink:href="#r0"/><use x="244" y="37" xlink:href="#r0"/><use x="253" y="37" xlink:href="#r0"/><use x="37" y="46" xlink:href="#r0"/><use x="91" y="46" xlink:href="#r0"/><use x="136" y="46" xlink:href="#r0"/><use x="145" y="46" xlink:href="#r0"/><use x="163" y="46" xlink:href="#r0"/><use x="181" y="46" xlink:href="#r0"/><use x="199" y="46" xlink:href="#r0"/><use x="253" y="46" xlink:href="#r0"/><use x="37" y="55" xlink:href="#r0"/><use x="55" y="55" xlink:href="#r0"/><use x="64" y="55" xlink:href="#r0"/><use x="73" y="55" xlink:href="#r0"/><use x="91" y="55" xlink:href="#r0"/><use x="118" y="55" xlink:href="#r0"/><use x="136" y="55" xlink:href="#r0"/><use x="154" y="55" xlink:href="#r0"/><use x="163" y="55" xlink:href="#r0"/><use x="199" y="55" xlink:href="#r0"/><use x="217" y="55" xlink:href="#r0"/><use x="226" y="55" xlink:href="#r0"/><use x="235" y="55" xlink:href="#r0"/><use x="253" y="55" xlink:href="#r0"/><use x="37" y="64" xlink:href="#r0"/><use x="55" y="64" xlink:href="#r0"/><use x="64" y="64" xlink:href="#r0"/><use x="73" y="64" xlink:href="#r0"/><use x="91" y="64" xlink:href="#r0"/><use x="127" y="64" xlink:href="#r0"/><use x="136" y="64" xlink:href="#r0"/><use x="145" y="64" xlink:href="#r0"/><use x="154" y="64" xlink:href="#r0"/><use x="172" y="64" xlink:href="#r0"/><use x="181" y="64" xlink:href="#r0"/><use x="199" y="64" xlink:href="#r0"/><use x="217" y="64" xlink:href="#r0"/><use x="226" y="64" xlink:href="#r0"/><use x="235" y="64" xlink:href="#r0"/><use x="253" y="64" xlink:href="#r0"/><use x="37" y="73" xlink:href="#r0"/><use x="55" y="73" xlink:href="#r0"/><use x="64" y="73" xlink:href="#r0"/><use x="73" y="73" xlink:href="#r0"/><use x="91" y="73" xlink:href="#r0"/><use x="127" y="73" xlink:href="#r0"/><use x="136" y="73" xlink:href="#r0"/><use x="145" y="73" xlink:href="#r0"/><use x="154" y="73" xlink:href="#r0"/><use x="163" y="73" xlink:href="#r0"/><use x="199" y="73" xlink:href="#r0"/><use x="217" y="73" xlink:href="#r0"/><use x="226" y="73" xlink:href="#r0"/><use x="235" y="73" xlink:href="#r0"/><use x="253" y="73" xlink:href="#r0"/><use x="37" y="82" xlink:href="#r0"/><use x="91" y="82" xlink:href="#r0"/><use x="118" y="82" xlink:href="#r0"/><use x="136" y="82" xlink:href="#r0"/><use x="154" y="82" xlink:href="#r0"/><use x="163" y="82" xlink:href="#r0"/><use x="199" y="82" xlink:href="#r0"/><use x="253" y="82" xlink:href="#r0"/><use x="37" y="91" xlink:href="#r0"/><use x="46" y="91" xlink:href="#r0"/><use x="55" y="91" xlink:href="#r0"/><use x="64" y="91" xlink:href="#r0"/><use x="73" y="91" xlink:href="#r0"/><use x="82" y="91" xlink:href="#r0"/><use x="91" y="91" xlink:href="#r0"/><use x="109" y="91" xlink:href="#r0"/><use x="127" y="91" xlink:href="#r0"/><use x="145" y="91" xlink:href="#r0"/><use x="163" y="91" xlink:href="#r0"/><use x="181" y="91" xlink:href="#r0"/><use x="199" y="91" xlink:href="#r0"/><use x="208" y="91" xlink:href="#r0"/><use x="217" y="91" xlink:href="#r0"/><use x="226" y="91" xlink:href="#r0"/><use x="235" y="91" xlink:href="#r0"/><use x="244" y="91" xlink:href="#r0"/><use x="253" y="91" xlink:href="#r0"/><use x="109" y="100" xlink:href="#r0"/><use x="118" y="100" xlink:href="#r0"/><use x="136" y="100" xlink:href="#r0"/><use x="145" y="100" xlink:href="#r0"/><use x="154" y="100" xlink:href="#r0"/><use x="181" y="100" xlink:href="#r0"/><use x="37" y="109" xlink:href="#r0"/><use x="46" y="109" xlink:href="#r0"/><use x="64" y="109" xlink:href="#r0"/><use x="73" y="109" xlink:href="#r0"/><use x="91" y="109" xlink:href="#r0"/><use x="118" y="109" xlink:href="#r0"/><use x="163" y="109" xlink:href="#r0"/><use x="181" y="109" xlink:href="#r0"/><use x="199" y="109" xlink:href="#r0"/><use x="253" y="109" xlink:href="#r0"/><use x="37" y="118" xlink:href="#r0"/><use x="64" y="118" xlink:href="#r0"/><use x="100" y="118" xlink:href="#r0"/><use x="127" y="118" xlink:href="#r0"/><use x="136" y="118" xlink:href="#r0"/><use x="145" y="118" xlink:href="#r0"/><use x="154" y="118" xlink:href="#r0"/><use x="163" y="118" xlink:href="#r0"/><use x="172" y="118" xlink:href="#r0"/><use x="190" y="118" xlink:href="#r0"/><use x="217" y="118" xlink:href="#r0"/><use x="226" y="118" xlink:href="#r0"/><use x="235" y="118" xlink:href="#r0"/><use x="244" y="118" xlink:href="#r0"/><use x="46" y="127" xlink:href="#r0"/><use x="82" y="127" xlink:href="#r0"/><use x="91" y="127" xlink:href="#r0"/><use x="100" y="127" xlink:href="#r0"/><use x="109" y="127" xlink:href="#r0"/><use x="118" y="127" xlink:href="#r0"/><use x="136" y="127" xlink:href="#r0"/><use x="145" y="127" xlink:href="#r0"/><use x="172" y="127" xlink:href="#r0"/><use x="181" y="127" xlink:href="#r0"/><use x="190" y="127" xlink:href="#r0"/><use x="199" y="127" xlink:href="#r0"/><use x="217" y="127" xlink:href="#r0"/><use x="226" y="127" xlink:href="#r0"/><use x="253" y="127" xlink:href="#r0"/><use x="37" y="136" xlink:href="#r0"/><use x="55" y="136" xlink:href="#r0"/><use x="73" y="136" xlink:href="#r0"/><use x="82" y="136" xlink:href="#r0"/><use x="100" y="136" xlink:href="#r0"/><use x="109" y="136" xlink:href="#r0"/><use x="145" y="136" xlink:href="#r0"/><use x="163" y="136" xlink:href="#r0"/><use x="172" y="136" xlink:href="#r0"/><use x="190" y="136" xlink:href="#r0"/><use x="199" y="136" xlink:href="#r0"/><use x="226" y="136" xlink:href="#r0"/><use x="235" y="136" xlink:href="#r0"/><use x="244" y="136" xlink:href="#r0"/><use x="253" y="136" xlink:href="#r0"/><use x="37" y="145" xlink:href="#r0"/><use x="46" y="145" xlink:href="#r0"/><use x="55" y="145" xlink:href="#r0"/><use x="64" y="145" xlink:href="#r0"/><use x="73" y="145" xlink:href="#r0"/><use x="82" y="145" xlink:href="#r0"/><use x="91" y="145" xlink:href="#r0"/><use x="109" y="145" xlink:href="#r0"/><use x="118" y="145" xlink:href="#r0"/><use x="127" y="145" xlink:href="#r0"/><use x="136" y="145" xlink:href="#r0"/><use x="181" y="145" xlink:href="#r0"/><use x="199" y="145" xlink:href="#r0"/><use x="253" y="145" xlink:href="#r0"/><use x="37" y="154" xlink:href="#r0"/><use x="64" y="154" xlink:href="#r0"/><use x="73" y="154" xlink:href="#r0"/><use x="82" y="154" xlink:href="#r0"/><use x="100" y="154" xlink:href="#r0"/><use x="109" y="154" xlink:href="#r0"/><use x="127" y="154" xlink:href="#r0"/><use x="136" y="154" xlink:href="#r0"/><use x="145" y="154" xlink:href="#r0"/><use x="154" y="154" xlink:href="#r0"/><use x="172" y="154" xlink:href="#r0"/><use x="181" y="154" xlink:href="#r0"/><use x="190" y="154" xlink:href="#r0"/><use x="208" y="154" xlink:href="#r0"/><use x="217" y="154" xlink:href="#r0"/><use x="244" y="154" xlink:href="#r0"/><use x="37" y="163" xlink:href="#r0"/><use x="46" y="163" xlink:href="#r0"/><use x="73" y="163" xlink:href="#r0"/><use x="82" y="163" xlink:href="#r0"/><use x="91" y="163" xlink:href="#r0"/><use x="145" y="163" xlink:href="#r0"/><use x="154" y="163" xlink:href="#r0"/><use x="172" y="163" xlink:href="#r0"/><use x="199" y="163" xlink:href="#r0"/><use x="226" y="163" xlink:href="#r0"/><use x="235" y="163" xlink:href="#r0"/><use x="244" y="163" xlink:href="#r0"/><use x="253" y="163" xlink:href="#r0"/><use x="37" y="172" xlink:href="#r0"/><use x="64" y="172" xlink:href="#r0"/><use x="73" y="172" xlink:href="#r0"/><use x="82" y="172" xlink:href="#r0"/><use x="118" y="172" xlink:href="#r0"/><use x="127" y="172" xlink:href="#r0"/><use x="136" y="172" xlink:href="#r0"/><use x="145" y="172" xlink:href="#r0"/><use x="163" y="172" xlink:href="#r0"/><use x="172" y="172" xlink:href="#r0"/><use x="181" y="172" xlink:href="#r0"/><use x="190" y="172" xlink:href="#r0"/><use x="235" y="172" xlink:href="#r0"/><use x="253" y="172" xlink:href="#r0"/><use x="37" y="181" xlink:href="#r0"/><use x="55" y="181" xlink:href="#r0"/><use x="73" y="181" xlink:href="#r0"/><use x="91" y="181" xlink:href="#r0"/><use x="118" y="181" xlink:href="#r0"/><use x="136" y="181" xlink:href="#r0"/><use x="154" y="181" xlink:href="#r0"/><use x="172" y="181" xlink:href="#r0"/><use x="181" y="181" xlink:href="#r0"/><use x="190" y="181" xlink:href="#r0"/><use x="199" y="181" xlink:href="#r0"/><use x="208" y="181" xlink:href="#r0"/><use x="217" y="181" xlink:href="#r0"/><use x="235" y="181" xlink:href="#r0"/><use x="244" y="181" xlink:href="#r0"/><use x="109" y="190" xlink:href="#r0"/><use x="118" y="190" xlink:href="#r0"/><use x="145" y="190" xlink:href="#r0"/><use x="181" y="190" xlink:href="#r0"/><use x="217" y="190" xlink:href="#r0"/><use x="244" y="190" xlink:href="#r0"/><use x="37" y="199" xlink:href="#r0"/><use x="46" y="199" xlink:href="#r0"/><use x="55" y="199" xlink:href="#r0"/><use x="64" y="199" xlink:href="#r0"/><use x="73" y="199" xlink:href="#r0"/><use x="82" y="199" xlink:href="#r0"/><use x="91" y="199" xlink:href="#r0"/><use x="118" y="199" xlink:href="#r0"/><use x="136" y="199" xlink:href="#r0"/><use x="154" y="199" xlink:href="#r0"/><use x="163" y="199" xlink:href="#r0"/><use x="181" y="199" xlink:href="#r0"/><use x="199" y="199" xlink:href="#r0"/><use x="217" y="199" xlink:href="#r0"/><use x="226" y="199" xlink:href="#r0"/><use x="253" y="199" xlink:href="#r0"/><use x="37" y="208" xlink:href="#r0"/><use x="91" y="208" xlink:href="#r0"/><use x="136" y="208" xlink:href="#r0"/><use x="154" y="208" xlink:href="#r0"/><use x="172" y="208" xlink:href="#r0"/><use x="181" y="208" xlink:href="#r0"/><use x="217" y="208" xlink:href="#r0"/><use x="253" y="208" xlink:href="#r0"/><use x="37" y="217" xlink:href="#r0"/><use x="55" y="217" xlink:href="#r0"/><use x="64" y="217" xlink:href="#r0"/><use x="73" y="217" xlink:href="#r0"/><use x="91" y="217" xlink:href="#r0"/><use x="109" y="217" xlink:href="#r0"/><use x="118" y="217" xlink:href="#r0"/><use x="127" y="217" xlink:href="#r0"/><use x="136" y="217" xlink:href="#r0"/><use x="145" y="217" xlink:href="#r0"/><use x="163" y="217" xlink:href="#r0"/><use x="172" y="217" xlink:href="#r0"/><use x="181" y="217" xlink:href="#r0"/><use x="190" y="217" xlink:href="#r0"/><use x="199" y="217" xlink:href="#r0"/><use x="208" y="217" xlink:href="#r0"/><use x="217" y="217" xlink:href="#r0"/><use x="226" y="217" xlink:href="#r0"/><use x="244" y="217" xlink:href="#r0"/><use x="37" y="226" xlink:href="#r0"/><use x="55" y="226" xlink:href="#r0"/><use x="64" y="226" xlink:href="#r0"/><use x="73" y="226" xlink:href="#r0"/><use x="91" y="226" xlink:href="#r0"/><use x="109" y="226" xlink:href="#r0"/><use x="118" y="226" xlink:href="#r0"/><use x="136" y="226" xlink:href="#r0"/><use x="145" y="226" xlink:href="#r0"/><use x="154" y="226" xlink:href="#r0"/><use x="163" y="226" xlink:href="#r0"/><use x="190" y="226" xlink:href="#r0"/><use x="199" y="226" xlink:href="#r0"/><use x="208" y="226" xlink:href="#r0"/><use x="226" y="226" xlink:href="#r0"/><use x="244" y="226" xlink:href="#r0"/><use x="253" y="226" xlink:href="#r0"/><use x="37" y="235" xlink:href="#r0"/><use x="55" y="235" xlink:href="#r0"/><use x="64" y="235" xlink:href="#r0"/><use x="73" y="235" xlink:href="#r0"/><use x="91" y="235" xlink:href="#r0"/><use x="118" y="235" xlink:href="#r0"/><use x="127" y="235" xlink:href="#r0"/><use x="136" y="235" xlink:href="#r0"/><use x="154" y="235" xlink:href="#r0"/><use x="181" y="235" xlink:href="#r0"/><use x="190" y="235" xlink:href="#r0"/><use x="217" y="235" xlink:href="#r0"/><use x="235" y="235" xlink:href="#r0"/><use x="244" y="235" xlink:href="#r0"/><use x="253" y="235" xlink:href="#r0"/><use x="37" y="244" xlink:href="#r0"/><use x="91" y="244" xlink:href="#r0"/><use x="109" y="244" xlink:href="#r0"/><use x="136" y="244" xlink:href="#r0"/><use x="145" y="244" xlink:href="#r0"/><use x="190" y="244" xlink:href="#r0"/><use x="199" y="244" xlink:href="#r0"/><use x="208" y="244" xlink:href="#r0"/><use x="217" y="244" xlink:href="#r0"/><use x="235" y="244" xlink:href="#r0"/><use x="244" y="244" xlink:href="#r0"/><use x="253" y="244" xlink:href="#r0"/><use x="37" y="253" xlink:href="#r0"/><use x="46" y="253" xlink:href="#r0"/><use x="55" y="253" xlink:href="#r0"/><use x="64" y="253" xlink:href="#r0"/><use x="73" y="253" xlink:href="#r0"/><use x="82" y="253" xlink:href="#r0"/><use x="91" y="253" xlink:href="#r0"/><use x="109" y="253" xlink:href="#r0"/><use x="118" y="253" xlink:href="#r0"/><use x="127" y="253" xlink:href="#r0"/><use x="172" y="253" xlink:href="#r0"/><use x="181" y="253" xlink:href="#r0"/><use x="199" y="253" xlink:href="#r0"/><use x="226" y="253" xlink:href="#r0"/><use x="253" y="253" xlink:href="#r0"/></svg>
